<?xml version="1.0" standalone="no"?>
<!DOCTYPE svg PUBLIC "-//W3C//DTD SVG 20010904//EN"
 "http://www.w3.org/TR/2001/REC-SVG-20010904/DTD/svg10.dtd">
<svg version="1.0" xmlns="http://www.w3.org/2000/svg"
 width="1024.000000pt" height="1024.000000pt" viewBox="0 0 1024.000000 1024.000000"
 preserveAspectRatio="xMidYMid meet">

<g transform="translate(0.000000,1024.000000) scale(0.100000,-0.100000)"
fill="#000000" stroke="none">
<path d="M4910 9344 c-25 -2 -103 -9 -175 -15 -1281 -109 -2479 -830 -3178
-1911 -404 -625 -614 -1280 -659 -2054 -28 -487 41 -1022 194 -1494 402 -1246
1347 -2234 2572 -2689 513 -191 1001 -271 1571 -258 626 15 1164 146 1711 416
875 431 1529 1079 1958 1938 299 599 438 1195 439 1878 0 291 -13 456 -59 726
-137 812 -514 1554 -1092 2151 -725 748 -1619 1186 -2637 1293 -137 14 -556
27 -645 19z m2646 -1696 c79 -53 123 -140 110 -218 -7 -48 -66 -100 -203 -178
-193 -111 -237 -165 -323 -395 -45 -121 -71 -139 -242 -171 -127 -24 -72 26
-600 -546 -386 -418 -624 -668 -1043 -1097 -407 -414 -435 -449 -435 -528 0
-69 61 -149 136 -181 54 -23 125 -26 201 -10 96 20 166 56 235 122 68 65 100
70 150 25 28 -25 33 -36 32 -73 -2 -73 -103 -240 -205 -338 -56 -53 -84 -72
-323 -211 -141 -82 -226 -165 -285 -278 -23 -45 -73 -173 -111 -285 -97 -287
-145 -378 -275 -515 -110 -115 -226 -187 -363 -222 -95 -24 -271 -26 -380 -3
-223 46 -442 183 -693 433 -355 355 -489 607 -489 916 0 182 42 324 137 469
135 205 312 315 715 446 296 96 345 131 480 335 68 102 107 177 168 320 96
225 185 371 294 481 149 149 341 188 392 80 l17 -35 -70 -108 c-82 -125 -154
-265 -177 -342 -46 -156 15 -317 145 -384 102 -52 81 -67 574 421 671 665
1016 1004 1194 1172 206 194 206 195 196 367 l-7 124 39 37 c27 25 83 55 169
92 71 30 229 105 351 166 228 115 300 141 389 143 43 1 60 -5 100 -31z"/>
<path d="M4060 4653 c-15 -3 -75 -55 -147 -127 -175 -173 -181 -145 84 -404
114 -112 219 -208 232 -213 42 -17 84 7 178 104 96 98 133 156 133 209 0 28
-22 54 -187 221 -165 166 -231 221 -260 216 -4 -1 -19 -4 -33 -6z"/>
<path d="M3344 3876 c-25 -25 -34 -43 -34 -68 0 -29 13 -46 103 -133 287 -281
292 -285 332 -285 29 0 44 7 71 34 19 19 34 41 34 50 0 28 -26 69 -66 105 -22
19 -107 101 -190 183 -132 130 -154 148 -183 148 -24 0 -42 -9 -67 -34z"/>
</g>
</svg>
